<svg aria-hidden="true" style="position: absolute; width: 0; height: 0; overflow: hidden;" version="1.1"
    xmlns="http://www.w3.org/2000/svg" xmlns:xlink="http://www.w3.org/1999/xlink">
    <defs>
        <symbol id="burger" width="21" height="14" viewBox="0 0 21 14" fill="none" xmlns="http://www.w3.org/2000/svg">
            <path d="M0 1H20.5" stroke="black" stroke-width="2" />
            <path d="M0 7H20.5" stroke="black" stroke-width="2" />
            <path d="M0 13H20.5" stroke="black" stroke-width="2" />

        </symbol>
        <symbol id="icon-Ellipse-3" viewBox="0 0 36 32">
            <path fill="#ff6b09" style="fill: var(--color1, #ff6b09)"
                d="M34.286 16c0 8.837-7.675 16-17.143 16s-17.143-7.163-17.143-16c0-8.837 7.675-16 17.143-16s17.143 7.163 17.143 16z">
            </path>
        </symbol>
        <symbol id="icon-phone-hat" viewBox="0 0 31 32">
            <path fill="#ff6b09" style="fill: var(--color1, #ff6b09)"
                d="M20.406 8.558h-7.116c-0.463 0-0.84 0.377-0.84 0.84v2.946l-5.287 2.219c-0.060 0.025-0.101 0.082-0.105 0.146s0.027 0.127 0.083 0.16l0.674 0.403v4.3c-0.345 0.079-0.603 0.387-0.603 0.756v0.414c0 0.095 0.077 0.172 0.172 0.172h1.207c0.095 0 0.172-0.077 0.172-0.172v-0.414c0-0.369-0.259-0.677-0.604-0.756v-4.094l0.533 0.319c-0.016 0.123-0.002-0.214-0.008 2.002 0 0.729 1.866 1.119 3.765 1.141v3.356c0 0.173 0.053 0.335 0.144 0.468 0.151 0.223 0.407 0.37 0.696 0.37h7.116c0.463 0 0.839-0.377 0.839-0.839 0 0.023-0.001-0.711 0-12.898 0-0.457-0.378-0.84-0.839-0.84zM8.42 20.328v0.242h-0.863v-0.242c0-0.239 0.193-0.433 0.43-0.433 0.239 0 0.433 0.194 0.433 0.433zM20.406 22.79h-7.116c-0.171 0-0.322-0.086-0.411-0.218-0.053-0.079-0.085-0.174-0.085-0.276v-1.163h8.105v1.164c0 0.27-0.225 0.494-0.494 0.494zM20.9 20.788h-8.105v-1.847c0.927-0.011 3.767-0.215 3.767-1.142-0.001-1.392 0.002-1.957-0.004-2.005l1.546-0.926c0.056-0.033 0.088-0.095 0.083-0.16s-0.045-0.121-0.105-0.146l-5.286-2.219v-1.438h8.105v9.883zM12.622 16.656c-0.955 0-2.794 0.123-3.592 0.645 0.005-1.595-0.055-1.491 0.141-1.627 0.496-0.365 1.915-0.62 3.451-0.62 0.67 0 3.595 0.184 3.595 0.803v1.444c-0.806-0.526-2.636-0.645-3.595-0.645zM12.795 9.398c0-0.273 0.222-0.495 0.495-0.495h7.116c0.273 0 0.494 0.225 0.494 0.495v1.163h-8.105v-1.163zM12.622 12.644l5.012 2.104-1.242 0.743c-0.66-0.655-2.844-0.782-3.77-0.782-0.927 0-3.111 0.127-3.77 0.782l-1.242-0.743 5.012-2.104zM9.030 17.799c0-0.279 1.234-0.799 3.592-0.799 2.36 0 3.595 0.52 3.595 0.799s-1.235 0.799-3.595 0.799c-2.359 0-3.592-0.52-3.592-0.799z">
            </path>
            <path fill="#ff6b09" style="fill: var(--color1, #ff6b09)"
                d="M16.848 21.392c-0.314 0-0.569 0.255-0.569 0.569s0.255 0.57 0.569 0.57c0.314 0 0.57-0.256 0.57-0.57s-0.255-0.569-0.57-0.569zM16.848 22.186c-0.124 0-0.225-0.101-0.225-0.225s0.101-0.225 0.225-0.225c0.124 0 0.225 0.101 0.225 0.225s-0.101 0.225-0.225 0.225z">
            </path>
            <path fill="#ff6b09" style="fill: var(--color1, #ff6b09)" d="M17.505 9.56h-1.313v0.344h1.313v-0.344z">
            </path>
            <path fill="none" stroke="#ff6b09" style="stroke: var(--color1, #ff6b09)" stroke-linejoin="miter"
                stroke-linecap="butt" stroke-miterlimit="4" stroke-width="0.6154"
                d="M31.077 4.615v-4.308h-30.769v31.385h30.769v-4.308"></path>
        </symbol>
        <symbol id="icon-umbrella" viewBox="0 0 31 32">
            <path fill="#ff6b09" style="fill: var(--color1, #ff6b09)"
                d="M7.942 14.958c0 0.165-0.25 0.165-0.25 0 0-3.502 2.84-6.342 6.343-6.342 3.504 0 6.343 2.84 6.343 6.343 0 0.165-0.249 0.165-0.249 0 0-2.367-3.89-2.369-3.89 0 0 0.165-0.256 0.165-0.256 0 0-2.361-3.896-2.361-3.896 0 0 0.165-0.256 0.165-0.256 0 0-2.357-3.888-2.373-3.888 0zM11.853 14.039c0.067-1.363 0.281-2.584 0.593-3.517 0.249-0.741 0.563-1.304 0.919-1.62-2.674 0.292-4.839 2.319-5.323 4.949 0.921-1.328 3.047-1.222 3.811 0.189zM15.963 13.977c-0.069-1.31-0.277-2.482-0.576-3.376-0.773-2.313-1.931-2.313-2.704 0-0.299 0.894-0.506 2.066-0.576 3.376 0.831-1.412 3.026-1.412 3.857 0zM20.027 13.85c-0.482-2.629-2.647-4.657-5.323-4.949 0.358 0.316 0.671 0.879 0.919 1.62 0.311 0.933 0.526 2.155 0.593 3.517 0.768-1.418 2.9-1.502 3.811-0.189z">
            </path>
            <path fill="#ff6b09" style="fill: var(--color1, #ff6b09)"
                d="M13.202 17.86v-1.288c-0.232 0.154-0.415 0.392-0.415 0.683 0 0.283 0.186 0.47 0.415 0.605zM13.452 18.26c-0.445-0.204-0.913-0.442-0.913-1.005 0-0.581 0.442-0.872 0.913-1.089v2.094z">
            </path>
            <path fill="#ff6b09" style="fill: var(--color1, #ff6b09)"
                d="M14.867 19.803v1.303c0.235-0.156 0.419-0.395 0.419-0.686 0-0.286-0.189-0.479-0.419-0.617zM14.619 19.402c0.446 0.207 0.918 0.452 0.918 1.018 0 0.582-0.445 0.873-0.918 1.089v-2.107z">
            </path>
            <path fill="#ff6b09" style="fill: var(--color1, #ff6b09)"
                d="M14.867 15.106c1.024 0.237 2.077 1.003 2.077 2.149 0 0.981-1.658 0.945-1.658 0 0-0.292-0.184-0.532-0.419-0.686v1.833c0.948 0.31 2.080 0.865 2.080 2.018 0 1.147-1.053 1.912-2.080 2.147-0.005 1.092-1.662 1.090-1.665-0.001-0.584-0.135-1.092-0.407-1.458-0.768-0.385-0.38-0.612-0.858-0.612-1.378 0-0.966 1.656-0.966 1.656 0 0 0.289 0.183 0.527 0.415 0.681v-1.831c-0.94-0.304-2.078-0.876-2.078-2.018 0-1.147 1.053-1.912 2.078-2.147 0.005-1.092 1.662-1.090 1.665 0.002zM13.452 15.109v0.199c-0.975 0.193-2.080 0.818-2.080 1.944 0 1.083 1.213 1.568 2.080 1.836v2.42c-0.469-0.214-0.913-0.503-0.913-1.087 0-0.638-1.159-0.638-1.159 0 0 0.451 0.201 0.867 0.539 1.199 0.43 0.425 0.951 0.627 1.533 0.743v0.201c0 0.768 1.166 0.768 1.166 0v-0.199c0.978-0.195 2.078-0.819 2.078-1.944 0-1.093-1.21-1.563-2.078-1.837v-2.418c0.47 0.214 0.918 0.503 0.918 1.090 0 0.621 1.157 0.647 1.157 0 0-1.125-1.099-1.75-2.075-1.945v-0.201c0-0.768-1.166-0.768-1.166 0z">
            </path>
            <path fill="none" stroke="#ff6b09" style="stroke: var(--color1, #ff6b09)" stroke-linejoin="miter"
                stroke-linecap="butt" stroke-miterlimit="4" stroke-width="0.6154"
                d="M31.077 4.615v-4.308h-30.769v31.385h30.769v-4.308"></path>
        </symbol>
        <symbol id="icon-women" viewBox="0 0 31 32">
            <path fill="#ff6b09" style="fill: var(--color1, #ff6b09)"
                d="M7.953 23.273c1.588 0 10.776 0 12.362 0 0.061-1.41-0.040-3.749-0.907-4.862l-0.031-0.040-1.894-0.951c0.041-0.139 0.061-0.266 0.070-0.359 0.009-0.112-0.006-0.217-0.046-0.313-0.313-0.748-0.974-1.141-1.337-1.309 0.111-0.223 0.182-0.463 0.217-0.708 0.206-0.058 0.371-0.221 0.426-0.439l0.221-0.898c0.039-0.158 0.015-0.323-0.070-0.463-0.036-0.060-0.083-0.111-0.136-0.154 0.623-1.416-0.421-2.751-0.478-2.821-1.131-1.222-2.559-0.994-2.635-0.98-2.061 0.432-2.857 2.011-2.408 3.864-0.133 0.147-0.189 0.353-0.14 0.554l0.222 0.899c0.054 0.216 0.218 0.379 0.423 0.437 0.063 0.449 0.253 0.854 0.532 1.181v0.712c-2.958 1.515-1.084 0.548-3.454 1.748-0.005 0.022-1.112 1.2-0.948 4.689l0.010 0.213zM19.885 22.826h-2.035v-0.855l1.346-3.081c0.674 1.119 0.699 3.255 0.689 3.935zM17.109 17.023c-0.079 0.902-0.573 0.629-0.878 1.324-0.24-0.264-0.312-0.581-0.248-0.92 0.117-0.622-0.263-0.807-0.169-1.461l0.014-0.015v-0.002c0.008-0.009 0.083-0.098 0.105-0.126 0.805 0.351 1.193 1.003 1.177 1.2zM12.79 16.314c0.374 0.259 0.825 0.412 1.31 0.412 0.457 0 0.891-0.133 1.263-0.378 0.052 0.514 0.253 0.617 0.181 0.995-0.013 0.070-0.021 0.139-0.025 0.207l-1.386 1.562-1.771-1.997 0.428-0.223v-0.579zM12.233 14.403v-0.866c0-0.319 0-1.584 0-1.521 0.216-0.399 0.51-0.688 0.875-0.861 0.979 0.554 2.105 1.38 2.86 2.211-0.001 1.059 0.003 1.062-0.004 1.149l-0.001 0.005c-0.059 0.962-0.85 1.759-1.864 1.759-0.986 0-1.804-0.774-1.863-1.768-0.003-0.036-0.004-0.071-0.004-0.108zM11.957 17.332l2.177 2.454 1.461-1.647c0.033 0.096 0.080 0.187 0.134 0.275l-1.595 1.995-2.379-2.975 0.202-0.101zM16.414 14.043v-0.691c0.020-0.022 0.186-0.213 0.166-0.191 0.009 0.35 0.047-0.063-0.166 0.882zM13.798 9.416c0.088 0.005 1.276-0.181 2.215 0.833 0.037 0.046 0.801 1.031 0.494 2.108-0.105-0.479-0.288-1.093-0.578-1.387l-0.316 0.315c0.286 0.289 0.474 1.171 0.545 1.628-1.311-1.372-3.002-2.24-3.025-2.255-0.085 0.053-0.8 0.189-1.32 1.199l-0.025 0.048v0.742c-0.022 0-0.088 0.001-0.066 0.001-0.33-1.594 0.302-2.861 2.076-3.233zM11.675 13.109l0.112 0.456v0.479l-0.187-0.757c-0.027-0.113 0.056-0.156 0.074-0.178zM11.347 17.638l2.787 3.485 1.885-2.358c0.205 0.184 0.304 0.21 0.739 0.433l-0.147-0.497c-0.037-0.126 0.11-0.329 0.199-0.422 0.199-0.108 0.364-0.261 0.488-0.451l1.538 0.772-1.431 3.277v0.948h-6.543v-0.949l-1.432-3.277 1.917-0.962zM9.071 18.891l1.346 3.080v0.855h-2.035c-0.010-0.68 0.015-2.815 0.689-3.934z">
            </path>
            <path fill="none" stroke="#ff6b09" style="stroke: var(--color1, #ff6b09)" stroke-linejoin="miter"
                stroke-linecap="butt" stroke-miterlimit="4" stroke-width="0.6154"
                d="M31.077 4.615v-4.308h-30.769v31.385h30.769v-4.308"></path>
        </symbol>
        <symbol id="icon-cross" viewBox="0 0 32 32">
            <path fill="none" stroke="#fff" style="stroke: var(--color2, #fff)" stroke-linejoin="miter"
                stroke-linecap="butt" stroke-miterlimit="4" stroke-width="3.7647" d="M1.882 29.168l27.286-27.286">
            </path>
            <path fill="none" stroke="#fff" style="stroke: var(--color2, #fff)" stroke-linejoin="miter"
                stroke-linecap="butt" stroke-miterlimit="4" stroke-width="3.7647" d="M29.169 29.168l-27.286-27.286">
            </path>
        </symbol>
        <symbol id="icon-hand-people" viewBox="0 0 33 32">
            <path
                d="M1.993 12.558v2.831c0 0.152 0.070 0.295 0.189 0.39 1.935 1.523 4.363 2.362 6.837 2.362 0.74 0 1.482-0.077 2.206-0.224 1.545 0.683 3.188 1.032 4.89 1.032 1.707 0 3.351-0.349 4.89-1.032 3.091 0.624 6.384-0.046 9.042-2.138 0.12-0.094 0.189-0.238 0.189-0.39v-2.831c0-0.416-0.206-0.794-0.575-1.027l-3.867-2.176c0.846-1.073 1.476-2.602 1.586-3.913 0.321-2.256-1.518-4.646-4.165-4.646-1.113 0-2.171 0.458-2.948 1.227-0.027 0.027-0.058 0.049-0.084 0.076-0.024 0.025-0.043 0.054-0.067 0.080-0.016 0.017-0.029 0.036-0.044 0.053-0.757-1.38-2.211-2.232-3.924-2.232-0.166 0-0.33 0.011-0.492 0.028-0.010-0.001-0.018-0.006-0.028-0.006-0.092 0-0.287 0.024-0.391 0.054-0.015 0.004-0.026 0.015-0.041 0.021-1.28 0.259-2.363 1.034-3.013 2.156-0.781-0.911-1.93-1.457-3.179-1.457-3.908 0-5.642 4.612-2.557 8.581l-3.903 2.167c-0.346 0.219-0.553 0.598-0.553 1.014zM20.996 16.828c-0.084 0.041-0.167 0.085-0.251 0.123l-0 0c-0.001 0-0.001 0.001-0.002 0.001-1.452 0.667-3.009 1.006-4.627 1.006-1.613 0-3.17-0.338-4.629-1.007-0.71-0.323-1.397-0.734-2.045-1.221v-2.87c0-0.098 0.047-0.184 0.102-0.221l4.542-2.524c0.565 0.48 1.287 0.832 2.035 0.832 0.721 0 1.499-0.357 2.052-0.843l4.487 2.52c0.083 0.053 0.13 0.139 0.13 0.237v2.87c-0.571 0.429-1.173 0.795-1.794 1.098zM29.154 12.382c0.059 0.037 0.092 0.101 0.092 0.176v2.587c-1.969 1.477-4.337 2.148-6.737 1.98 0.369-0.23 0.771-0.516 1.083-0.76 0.12-0.094 0.19-0.238 0.19-0.39v-3.114c0-0.435-0.218-0.835-0.61-1.087l-2.383-1.339 0.58-0.321c0.703 0.573 1.307 0.744 1.848 0.744 0.662 0 1.36-0.325 1.878-0.759l4.060 2.284zM23.216 1.788c1.38 0 2.593 0.902 3.021 2.142-0.833-0.099-1.647-0.51-2.237-1.142-0.107-0.114-0.258-0.173-0.416-0.155-0.155 0.016-0.293 0.105-0.373 0.239-0.566 0.948-1.493 1.58-2.548 1.76 0-0.001-0-0.002-0-0.003 0.005-0.216-0.008-0.434-0.033-0.653-0.003-0.022-0.005-0.044-0.007-0.067-0.032-0.248-0.107-0.559-0.122-0.609 0.563-0.902 1.609-1.513 2.713-1.513zM20.556 5.644c1.253-0.137 2.386-0.767 3.164-1.762 0.767 0.629 1.74 1.010 2.702 1.056-0.007 1.792-1.471 4.927-3.206 4.927-1.337 0-2.479-1.912-2.905-3.238 0.108-0.341 0.187-0.669 0.245-0.983zM20.656 9.373l-0.886 0.491-0.895-0.502c0.332-0.413 0.636-0.893 0.896-1.413 0.25 0.526 0.55 1.010 0.884 1.425zM19.32 6.465c-0.478 1.427-1.705 3.49-3.199 3.49-1.742 0-3.226-2.864-3.509-4.696 0.075-0.019 2.43 0.126 4.050-2.001 0.822 0.688 1.932 1.143 3.011 1.188 0.013 0.647-0.144 1.406-0.352 2.018zM16.149 0.992c2.78 0 3.309 2.392 3.352 2.442-1.008-0.102-1.928-0.596-2.563-1.276-0.107-0.114-0.262-0.171-0.416-0.154-0.155 0.017-0.293 0.106-0.373 0.241-0.551 0.932-1.414 1.589-2.414 1.868-0.386 0.108-0.803 0.157-1.166 0.154 0.136-1.822 1.596-3.274 3.58-3.274zM12.461 7.938c0.257 0.515 0.563 1.006 0.913 1.438l-0.875 0.487-0.907-0.51c0.344-0.438 0.636-0.929 0.87-1.415zM9.006 1.788c1.125 0 2.155 0.571 2.729 1.514-0.029 0.1-0.106 0.498-0.117 0.548-0.69-0.165-1.324-0.533-1.821-1.062-0.107-0.114-0.258-0.17-0.416-0.154-0.155 0.017-0.293 0.106-0.372 0.24-0.663 1.119-1.881 1.815-3.177 1.815 0.158-1.627 1.518-2.9 3.174-2.9zM5.876 5.678c1.425-0.014 2.77-0.686 3.643-1.796 0.596 0.491 1.303 0.813 2.055 0.961 0.029 0.575 0.179 1.273 0.35 1.789-0.274 0.84-0.799 1.841-1.451 2.505-0.004 0.004-0.010 0.006-0.014 0.010-0.408 0.43-0.988 0.719-1.444 0.719-1.594 0-2.841-2.508-3.14-4.188zM2.985 12.558c0-0.075 0.033-0.139 0.067-0.162l4.116-2.284c0.247 0.206 0.304 0.229 0.353 0.265l-0 0c0.484 0.322 0.928 0.482 1.534 0.482 0.645 0 1.232-0.273 1.749-0.694 0.029-0.023 0.060-0.045 0.088-0.068l0.587 0.33-2.446 1.361c-0.366 0.236-0.584 0.636-0.584 1.071v3.114c0 0.152 0.070 0.296 0.19 0.39 0.317 0.249 0.727 0.539 1.083 0.761-2.434 0.166-4.803-0.528-6.737-1.98v-2.587z">
            </path>
            <path
                d="M31.259 20.781c-0.61-0.383-1.361-0.423-2.007-0.11l-6.119 2.956c-0.021-1.145-0.956-2.072-2.107-2.072l-3.509 0.001c-1.73-1.504-3.941-2.425-5.952-2.473-1.983-0.047-3.763-0.060-4.593-0.064v-1.002h-6.972v11.517h6.972v-1.379c1.912 1.097 6.939 3.845 9.325 3.845 0.054 0 0.107-0.001 0.158-0.004 4.196-0.235 14.091-7.198 14.743-7.661 0.638-0.37 1.034-1.056 1.034-1.796 0-0.719-0.364-1.376-0.973-1.758zM5.98 28.542h-4.988v-9.533h4.988v9.533zM30.687 23.484c-0.015 0.008-0.030 0.017-0.044 0.028-0.102 0.073-10.281 7.271-14.244 7.494-0.039 0.002-0.079 0.003-0.121 0.003-2.092 0-7.194-2.753-9.307-4.001v-6.997c0.827 0.004 2.597 0.017 4.569 0.064 1.837 0.044 3.876 0.921 5.456 2.346l0.141 0.128 3.887-0.001c0.617 0 1.119 0.502 1.119 1.119s-0.502 1.119-1.119 1.119h-7.142v0.992h7.142c0.684 0 1.288-0.333 1.674-0.839l6.984-3.373c0.343-0.167 0.725-0.146 1.049 0.057s0.508 0.537 0.508 0.918c0 0.391-0.212 0.753-0.553 0.945z">
            </path>
            <path d="M16.612 12.158h-0.992v0.92h0.992v-0.92z">
            </path>
            <path d="M16.612 13.992h-0.992v0.92h0.992v-0.92z">
            </path>
            <path d="M16.612 15.826h-0.992v0.92h0.992v-0.92z">
            </path>
        </symbol>
        <symbol id="instagram" width="40" height="40" viewBox="0 0 40 40" fill="none">
            <g clip-path="url(#clip0_1_2997)">
                <path
                    d="M39.3152 7.15454C38.9511 3.74329 36.257 1.04858 32.8455 0.684814C24.2902 -0.228271 15.7098 -0.228271 7.15485 0.684814C3.74329 1.04889 1.04889 3.74329 0.684814 7.15454C-0.228271 15.7095 -0.228271 24.2902 0.684814 32.8452C1.04889 36.2567 3.74329 38.9511 7.15454 39.3152C15.7095 40.2283 24.2902 40.2283 32.8455 39.3152C36.257 38.9511 38.9511 36.2567 39.3152 32.8452C40.2283 24.2902 40.2283 15.7098 39.3152 7.15454Z"
                    fill="url(#paint0_radial_1_2997)" />
                <path
                    d="M37.1399 8.60117C36.817 5.57413 34.4262 3.18307 31.3989 2.85989C23.8073 2.04996 16.1932 2.04996 8.60165 2.85989C5.57462 3.18307 3.18356 5.57413 2.86038 8.60117C2.05045 16.1927 2.05045 23.8069 2.86038 31.3981C3.18356 34.4254 5.57462 36.8165 8.60165 37.1394C16.1932 37.9496 23.8073 37.9496 31.3986 37.1394C34.4259 36.8165 36.817 34.4254 37.1399 31.3981C37.9501 23.8069 37.9501 16.1927 37.1399 8.60117Z"
                    fill="url(#paint1_linear_1_2997)" />
                <path
                    d="M0.599609 32.0161C0.627075 32.2926 0.655457 32.5691 0.685059 32.8456C1.04913 36.2568 3.74353 38.9512 7.15509 39.3153C15.7101 40.2284 24.2907 40.2284 32.8457 39.3153C36.2573 38.9512 38.9514 36.2568 39.3154 32.8456C39.345 32.5691 39.3734 32.2926 39.4012 32.0161H0.599609Z"
                    fill="url(#paint2_linear_1_2997)" />
                <path
                    d="M39.315 32.8453C39.8057 28.2484 40.0322 23.6442 39.9955 19.0407L30.8525 9.89759C29.7102 8.59357 28.0418 7.77967 26.0814 7.70917C22.0497 7.56391 18.0052 7.57123 13.9729 7.70978C10.6239 7.82514 8.28198 10.0761 7.6814 13.3845C7.5755 13.9686 7.51202 14.5604 7.42871 15.1487V24.8478C7.47479 25.1622 7.54254 25.475 7.5636 25.7911C7.69788 27.8035 8.5249 29.5271 9.84906 30.6932L19.1533 39.9971C23.7193 40.0291 28.2856 39.8021 32.8453 39.3153C36.2568 38.9512 38.9509 36.2568 39.315 32.8453Z"
                    fill="url(#paint3_linear_1_2997)" />
                <path
                    d="M39.3149 32.8457C38.9511 36.2567 36.2561 38.9517 32.8452 39.3154C28.2861 39.8019 23.7189 40.0292 19.1534 39.9972L9.86328 30.707C10.9402 31.6497 12.3441 32.2238 13.9731 32.2851C18.0045 32.4365 22.0499 32.4325 26.0812 32.2872C29.7275 32.1554 32.366 29.4567 32.4799 25.8105C32.6013 21.939 32.6013 18.0575 32.4799 14.186C32.428 12.5039 31.8375 11.0238 30.8585 9.90381L39.9957 19.0411C40.0317 23.644 39.8053 28.2488 39.3149 32.8457Z"
                    fill="url(#paint4_linear_1_2997)" />
                <path
                    d="M24.7195 15.6688C23.5482 14.3934 21.8676 13.5933 19.9996 13.5933C16.4614 13.5933 13.5928 16.4619 13.5928 20.0001C13.5928 21.8681 14.3929 23.5487 15.6683 24.72L30.4916 39.5433C31.2762 39.4749 32.0608 39.3989 32.8448 39.3153C36.2563 38.9512 38.9507 36.2568 39.3148 32.8453C39.3984 32.0613 39.4744 31.2767 39.5428 30.4921L24.7195 15.6688Z"
                    fill="url(#paint5_linear_1_2997)" />
                <path
                    d="M39.9227 24.3089L27.9927 12.3793C27.7144 12.014 27.2759 11.7769 26.7812 11.7769C25.9395 11.7769 25.2568 12.4592 25.2568 13.3012C25.2568 13.7959 25.494 14.2344 25.8593 14.5128L39.7094 28.3632C39.8033 27.0121 39.8745 25.6605 39.9227 24.3089Z"
                    fill="url(#paint6_linear_1_2997)" />
                <path
                    d="M7.42871 15.1487C7.51202 14.5604 7.5755 13.9686 7.6814 13.3845C8.28168 10.0761 10.6239 7.82514 13.9729 7.70978C18.0052 7.57123 22.0497 7.56391 26.0814 7.70917C29.7264 7.8404 32.3661 10.5394 32.48 14.1856C32.6011 18.0574 32.6011 21.9386 32.48 25.8104C32.3661 29.4566 29.7273 32.1553 26.0817 32.2868C22.05 32.4324 18.0046 32.436 13.9732 32.2847C10.3276 32.1476 7.80743 29.4426 7.5636 25.7908C7.54254 25.475 7.47479 25.1619 7.42871 24.8475C7.42871 21.6145 7.42871 18.3815 7.42871 15.1487ZM20.0032 30.1259C21.8483 30.1259 23.6952 30.1811 25.5378 30.113C28.4269 30.0059 30.204 28.2817 30.2714 25.3953C30.355 21.7988 30.355 18.1975 30.2714 14.6007C30.204 11.7149 28.4257 9.95038 25.5378 9.88904C21.8724 9.81153 18.2029 9.81214 14.5375 9.88904C11.6716 9.94916 9.88934 11.678 9.81152 14.532C9.71265 18.174 9.71265 21.8223 9.81152 25.4643C9.88934 28.318 11.6716 30.0068 14.5378 30.113C16.3572 30.1808 18.1813 30.1259 20.0032 30.1259Z"
                    fill="url(#paint7_linear_1_2997)" />
                <path
                    d="M7.42871 15.1487C7.51202 14.5604 7.5755 13.9686 7.6814 13.3845C8.28168 10.0761 10.6239 7.82514 13.9729 7.70978C18.0052 7.57123 22.0497 7.56391 26.0814 7.70917C29.7264 7.8404 32.3661 10.5394 32.48 14.1856C32.6011 18.0574 32.6011 21.9386 32.48 25.8104C32.3661 29.4566 29.7273 32.1553 26.0817 32.2868C22.05 32.4324 18.0046 32.436 13.9732 32.2847C10.3276 32.1476 7.80743 29.4426 7.5636 25.7908C7.54254 25.475 7.47479 25.1619 7.42871 24.8475C7.42871 21.6145 7.42871 18.3815 7.42871 15.1487ZM20.0032 30.1259C21.8483 30.1259 23.6952 30.1811 25.5378 30.113C28.4269 30.0059 30.204 28.2817 30.2714 25.3953C30.355 21.7988 30.355 18.1975 30.2714 14.6007C30.204 11.7149 28.4257 9.95038 25.5378 9.88904C21.8724 9.81153 18.2029 9.81214 14.5375 9.88904C11.6716 9.94916 9.88934 11.678 9.81152 14.532C9.71265 18.174 9.71265 21.8223 9.81152 25.4643C9.88934 28.318 11.6716 30.0068 14.5378 30.113C16.3572 30.1808 18.1813 30.1259 20.0032 30.1259Z"
                    fill="white" />
                <path
                    d="M19.9996 13.5933C16.4614 13.5933 13.5928 16.4616 13.5928 19.9998C13.5928 23.5383 16.4614 26.4067 19.9996 26.4067C23.5381 26.4067 26.4065 23.5383 26.4065 19.9998C26.4065 16.4616 23.5381 13.5933 19.9996 13.5933ZM19.9996 24.2009C17.6794 24.2009 15.7986 22.3201 15.7986 19.9998C15.7986 17.6796 17.6794 15.7988 19.9996 15.7988C22.3199 15.7988 24.2007 17.6796 24.2007 19.9998C24.2007 22.3201 22.3199 24.2009 19.9996 24.2009Z"
                    fill="white" />
                <path
                    d="M28.3052 13.3012C28.3052 14.1429 27.6229 14.8253 26.7812 14.8253C25.9395 14.8253 25.2568 14.1429 25.2568 13.3012C25.2568 12.4592 25.9395 11.7769 26.7812 11.7769C27.6229 11.7769 28.3052 12.4592 28.3052 13.3012Z"
                    fill="white" />
            </g>
            <defs>
                <radialGradient id="paint0_radial_1_2997" cx="0" cy="0" r="1" gradientUnits="userSpaceOnUse"
                    gradientTransform="translate(8.19977 34.9568) scale(44.113)">
                    <stop stop-color="#FAE100" />
                    <stop offset="0.0544" stop-color="#FADC04" />
                    <stop offset="0.1167" stop-color="#FBCE0E" />
                    <stop offset="0.1829" stop-color="#FCB720" />
                    <stop offset="0.2514" stop-color="#FE9838" />
                    <stop offset="0.3054" stop-color="#FF7950" />
                    <stop offset="0.4922" stop-color="#FF1C74" />
                    <stop offset="1" stop-color="#6C1CD1" />
                </radialGradient>
                <linearGradient id="paint1_linear_1_2997" x1="15.3419" y1="17.3794" x2="-52.4228" y2="-20.7382"
                    gradientUnits="userSpaceOnUse">
                    <stop stop-color="#A1B5D8" stop-opacity="0" />
                    <stop offset="0.3094" stop-color="#90A2BD" stop-opacity="0.309804" />
                    <stop offset="0.7554" stop-color="#7C8B9C" stop-opacity="0.756863" />
                    <stop offset="1" stop-color="#748290" />
                </linearGradient>
                <linearGradient id="paint2_linear_1_2997" x1="20.0003" y1="35.31" x2="20.0003" y2="41.545"
                    gradientUnits="userSpaceOnUse">
                    <stop stop-color="#FAE100" stop-opacity="0" />
                    <stop offset="0.3068" stop-color="#FCA800" stop-opacity="0.305882" />
                    <stop offset="0.6275" stop-color="#FE7300" stop-opacity="0.627451" />
                    <stop offset="0.8685" stop-color="#FF5200" stop-opacity="0.866667" />
                    <stop offset="1" stop-color="#FF4500" />
                </linearGradient>
                <linearGradient id="paint3_linear_1_2997" x1="17.7242" y1="17.6679" x2="7.82487" y2="7.76858"
                    gradientUnits="userSpaceOnUse">
                    <stop stop-color="#833AB4" stop-opacity="0" />
                    <stop offset="1" stop-color="#833AB4" />
                </linearGradient>
                <linearGradient id="paint4_linear_1_2997" x1="27.4137" y1="36.5852" x2="22.4728" y2="13.2922"
                    gradientUnits="userSpaceOnUse">
                    <stop stop-color="#833AB4" stop-opacity="0" />
                    <stop offset="1" stop-color="#833AB4" />
                </linearGradient>
                <linearGradient id="paint5_linear_1_2997" x1="29.2938" y1="29.2943" x2="9.44816" y2="9.44863"
                    gradientUnits="userSpaceOnUse">
                    <stop stop-color="#833AB4" stop-opacity="0" />
                    <stop offset="1" stop-color="#833AB4" />
                </linearGradient>
                <linearGradient id="paint6_linear_1_2997" x1="30.7663" y1="17.2863" x2="24.2038" y2="10.7237"
                    gradientUnits="userSpaceOnUse">
                    <stop stop-color="#833AB4" stop-opacity="0" />
                    <stop offset="1" stop-color="#833AB4" />
                </linearGradient>
                <linearGradient id="paint7_linear_1_2997" x1="27.9419" y1="12.1134" x2="11.761" y2="28.2943"
                    gradientUnits="userSpaceOnUse">
                    <stop stop-color="#833AB4" />
                    <stop offset="0.0922" stop-color="#9C3495" />
                    <stop offset="0.2927" stop-color="#DC2546" />
                    <stop offset="0.392" stop-color="#FD1D1D" />
                    <stop offset="0.5589" stop-color="#FC6831" />
                    <stop offset="0.6887" stop-color="#FC9B40" />
                    <stop offset="0.7521" stop-color="#FCAF45" />
                    <stop offset="0.7806" stop-color="#FDB750" />
                    <stop offset="0.8656" stop-color="#FECB6A" />
                    <stop offset="0.9415" stop-color="#FFD87A" />
                    <stop offset="1" stop-color="#FFDC80" />
                </linearGradient>
                <clipPath id="clip0_1_2997">
                    <rect width="40" height="40" fill="white" />
                </clipPath>
            </defs>
        </symbol>
        <symbol id="icon-menu" viewBox="0 0 48 32">
            <path stroke-linejoin="miter" stroke-linecap="butt" stroke-miterlimit="4" stroke-width="4.5714"
                d="M0 2.286h46.857"></path>
            <path stroke-linejoin="miter" stroke-linecap="butt" stroke-miterlimit="4" stroke-width="4.5714"
                d="M0 16h46.857"></path>
            <path stroke-linejoin="miter" stroke-linecap="butt" stroke-miterlimit="4" stroke-width="4.5714"
                d="M0 29.714h46.857"></path>
        </symbol>
        <symbol id="icon-audiobook" viewBox="0 0 39 32">
            <path
                d="M3.047 29.453h12.23c0.62 1.285 1.917 2.116 3.38 2.116h0.772c1.465 0 2.761-0.83 3.381-2.116h12.237c1.26 0 2.286-1.025 2.286-2.286v-21.905c0-1.26-1.025-2.286-2.286-2.286h-1.234v-1.021c0-0.84-0.684-1.524-1.524-1.524h-26.491c-0.84 0-1.524 0.683-1.524 1.524v1.021h-1.227c-1.26 0-2.286 1.025-2.286 2.286v21.905c0 1.26 1.025 2.286 2.286 2.286zM32.288 24.752h-12.478v-17.705c2.884 0.377 5.121 2.845 5.121 5.831v0.687l-0.181-0.040c-0.196-0.042-0.403-0.007-0.574 0.102s-0.291 0.281-0.334 0.478l-1.213 5.519c-0.090 0.41 0.17 0.816 0.58 0.907l2.621 0.578c0.135 0.029 0.273 0.043 0.411 0.043 0.922 0 1.707-0.631 1.908-1.535l0.702-3.192c0.231-1.048-0.433-2.090-1.484-2.324l-0.912-0.201v-1.023c0-3.827-2.917-6.986-6.644-7.37v-3.551h12.48l-0.002 22.796zM25.166 15.177l1.871 0.412c0.234 0.052 0.376 0.275 0.325 0.508l-0.702 3.191c-0.051 0.231-0.306 0.374-0.507 0.331l-1.873-0.413 0.886-4.030zM5.798 1.956h12.487v3.55c-3.731 0.381-6.652 3.541-6.652 7.371v1.022l-0.914 0.202c-0.509 0.113-0.943 0.416-1.222 0.854-0.281 0.439-0.373 0.961-0.26 1.468l0.7 3.188c0.19 0.892 0.993 1.54 1.909 1.54 0.138 0 0.275-0.015 0.416-0.045l2.61-0.577c0.41-0.091 0.67-0.496 0.58-0.907l-1.213-5.519c-0.043-0.198-0.164-0.37-0.334-0.478s-0.378-0.144-0.574-0.102l-0.174 0.038v-0.686c0-2.988 2.24-5.458 5.128-5.832v17.706h-12.487v-22.796zM12.916 15.177l0.887 4.029-1.863 0.411c-0.229 0.052-0.463-0.1-0.512-0.328l-0.702-3.196c-0.025-0.111-0.005-0.224 0.055-0.319 0.061-0.096 0.157-0.162 0.268-0.187l1.867-0.412zM2.286 5.262c0-0.42 0.342-0.762 0.762-0.762h1.227v20.252c0 0.84 0.684 1.524 1.524 1.524h26.491c0.84 0 1.524-0.683 1.524-1.524v-20.252h1.234c0.42 0 0.762 0.342 0.762 0.762v21.905c0 0.42-0.342 0.762-0.762 0.762h-12.754c-0.335 0-0.63 0.218-0.728 0.538-0.289 0.943-1.147 1.577-2.135 1.577h-0.772c-0.984 0-1.841-0.631-2.138-1.586-0.101-0.315-0.394-0.529-0.725-0.529h-12.747c-0.42 0-0.762-0.342-0.762-0.762v-21.905z">
            </path>
        </symbol>
        <symbol id="icon-female-student" viewBox="0 0 27 32">
            <path
                d="M-0.102 31.759c3.441 0 23.348 0 26.785 0 0.133-3.055-0.086-8.122-1.964-10.535l-0.068-0.087-4.104-2.060c0.089-0.301 0.133-0.576 0.151-0.778 0.020-0.243-0.013-0.471-0.1-0.678-0.677-1.62-2.11-2.472-2.898-2.836 0.24-0.484 0.395-1.003 0.47-1.534 0.446-0.126 0.805-0.479 0.923-0.951l0.479-1.946c0.085-0.343 0.032-0.699-0.151-1.002-0.079-0.131-0.18-0.24-0.294-0.334 1.351-3.068-0.911-5.96-1.035-6.113-2.45-2.649-5.545-2.153-5.708-2.124-4.466 0.935-6.19 4.358-5.217 8.372-0.288 0.319-0.409 0.764-0.302 1.2l0.481 1.948c0.117 0.468 0.473 0.82 0.916 0.948 0.137 0.972 0.548 1.851 1.152 2.559v1.543c-6.409 3.282-2.348 1.188-7.484 3.786-0.010 0.048-2.41 2.599-2.053 10.159l0.022 0.462zM25.752 30.789h-4.408v-1.852l2.916-6.675c1.461 2.424 1.515 7.053 1.493 8.526zM19.735 18.216c-0.17 1.954-1.242 1.364-1.903 2.869-0.52-0.572-0.677-1.258-0.537-1.993 0.253-1.349-0.57-1.749-0.367-3.166l0.031-0.032v-0.005c0.017-0.020 0.18-0.213 0.227-0.274 1.744 0.76 2.584 2.174 2.55 2.6zM10.379 16.68c0.81 0.562 1.787 0.893 2.838 0.893 0.99 0 1.93-0.288 2.736-0.819 0.112 1.114 0.547 1.337 0.393 2.157-0.029 0.152-0.045 0.302-0.054 0.45l-3.002 3.384-3.838-4.327 0.926-0.484v-1.254zM9.172 12.54v-1.876c0-0.691 0-3.431 0-3.296 0.467-0.864 1.104-1.491 1.896-1.866 2.12 1.2 4.56 2.99 6.197 4.791-0.002 2.294 0.006 2.301-0.009 2.489l-0.001 0.012c-0.128 2.083-1.841 3.811-4.038 3.811-2.136 0-3.909-1.677-4.037-3.831-0.007-0.077-0.008-0.155-0.008-0.233zM8.574 18.886l4.716 5.317 3.166-3.569c0.072 0.208 0.174 0.405 0.29 0.595l-3.456 4.322-5.154-6.446 0.438-0.22zM18.23 11.759v-1.498c0.042-0.049 0.402-0.461 0.36-0.413 0.020 0.758 0.102-0.137-0.36 1.911zM12.562 1.734c0.192 0.012 2.765-0.391 4.799 1.804 0.080 0.1 1.736 2.234 1.071 4.567-0.228-1.038-0.624-2.369-1.252-3.004l-0.685 0.683c0.619 0.627 1.026 2.537 1.181 3.527-2.84-2.972-6.504-4.853-6.555-4.885-0.184 0.114-1.734 0.409-2.86 2.598l-0.054 0.105v1.607c-0.048 0.001-0.19 0.002-0.142 0.002-0.716-3.454 0.655-6.198 4.497-7.004zM7.963 9.736l0.244 0.987v1.038l-0.405-1.639c-0.059-0.244 0.122-0.337 0.161-0.386zM7.253 19.55l6.038 7.551 4.085-5.109c0.444 0.398 0.658 0.454 1.6 0.939l-0.318-1.078c-0.081-0.274 0.239-0.713 0.431-0.914 0.43-0.233 0.789-0.566 1.058-0.977l3.333 1.674-3.101 7.1v2.055h-14.176v-2.055l-3.103-7.099 4.153-2.085zM2.321 22.265l2.916 6.673v1.852h-4.408c-0.022-1.473 0.033-6.099 1.492-8.524z">
            </path>
        </symbol>
        <symbol id="icon-mobile-hat-no-border" viewBox="0 0 33 32">
            <path
                d="M30.175-0.128h-15.746c-1.025 0-1.859 0.834-1.859 1.859v6.518l-11.698 4.91c-0.132 0.056-0.222 0.181-0.233 0.324s0.061 0.28 0.184 0.354l1.492 0.893v9.515c-0.763 0.174-1.335 0.857-1.335 1.674v0.917c0 0.21 0.171 0.381 0.381 0.381h2.671c0.21 0 0.381-0.171 0.381-0.381v-0.917c0-0.816-0.573-1.498-1.336-1.673v-9.060l1.18 0.706c-0.036 0.272-0.005-0.474-0.017 4.43 0 1.612 4.129 2.476 8.33 2.525v7.425c0 0.384 0.117 0.74 0.318 1.036 0.334 0.494 0.9 0.82 1.54 0.82h15.746c1.024 0 1.857-0.833 1.857-1.857 0 0.051-0.002-1.573 0-28.54 0-1.011-0.836-1.859-1.856-1.859zM3.652 25.918v0.536h-1.909v-0.536c0-0.528 0.427-0.957 0.952-0.957 0.528 0 0.957 0.43 0.957 0.957zM30.175 31.364h-15.746c-0.378 0-0.712-0.191-0.909-0.482-0.118-0.175-0.187-0.385-0.187-0.612v-2.574h17.935v2.575c0 0.597-0.497 1.092-1.092 1.092zM31.268 26.935h-17.935v-4.086c2.051-0.023 8.335-0.475 8.335-2.527-0.002-3.081 0.005-4.33-0.010-4.436l3.421-2.049c0.123-0.074 0.194-0.211 0.184-0.354s-0.1-0.268-0.233-0.324l-11.698-4.91v-3.182h17.935v21.868zM12.951 17.792c-2.113 0-6.182 0.273-7.949 1.427 0.011-3.53-0.122-3.3 0.312-3.6 1.098-0.809 4.238-1.373 7.637-1.373 1.482 0 7.954 0.408 7.954 1.778v3.195c-1.784-1.165-5.832-1.428-7.954-1.428zM13.333 1.731c0-0.604 0.491-1.095 1.095-1.095h15.746c0.604 0 1.093 0.498 1.093 1.095v2.574h-17.935v-2.574zM12.951 8.915l11.090 4.655-2.748 1.644c-1.461-1.449-6.294-1.73-8.342-1.73-2.051 0-6.884 0.282-8.342 1.73l-2.749-1.645 11.091-4.655zM5.002 20.321c0-0.617 2.73-1.767 7.949-1.767 5.222 0 7.954 1.151 7.954 1.767s-2.732 1.768-7.954 1.768c-5.219 0-7.949-1.151-7.949-1.768z">
            </path>
            <path
                d="M22.301 28.271c-0.695 0-1.26 0.565-1.26 1.26s0.565 1.26 1.26 1.26c0.695 0 1.26-0.566 1.26-1.26s-0.565-1.26-1.26-1.26zM22.301 30.030c-0.275 0-0.498-0.224-0.498-0.499s0.224-0.498 0.498-0.498c0.275 0 0.498 0.223 0.498 0.498s-0.223 0.499-0.498 0.499z">
            </path>
            <path d="M23.755 2.090h-2.906v0.762h2.906v-0.762z">
            </path>
        </symbol>
        <symbol id="icon-book" viewBox="0 0 46 32">
            <path d="M20.267 4.608h-13.64v1.021h13.64v-1.021z"></path>
            <path d="M20.266 8.416h-11.597v1.021h11.597v-1.021z">
            </path>
            <path d="M20.267 12.224h-13.64v1.021h13.64v-1.021z"></path>
            <path d="M20.266 16.032h-11.597v1.021h11.597v-1.021z">
            </path>
            <path d="M20.267 19.84h-13.64v1.021h13.64v-1.021z"></path>
            <path d="M20.266 23.648h-11.597v1.021h11.597v-1.021z">
            </path>
            <path d="M38.99 4.608h-13.64v1.021h13.64v-1.021z"></path>
            <path d="M36.947 8.416h-11.597v1.021h11.597v-1.021z">
            </path>
            <path d="M38.99 12.224h-13.64v1.021h13.64v-1.021z"></path>
            <path d="M36.947 16.032h-11.597v1.021h11.597v-1.021z">
            </path>
            <path d="M38.99 19.84h-13.64v1.021h13.64v-1.021z"></path>
            <path d="M36.947 23.648h-11.597v1.021h11.597v-1.021z">
            </path>
            <path
                d="M43.915 3.445h-1.872v-2.812c0-0.282-0.229-0.511-0.511-0.511h-15.265c-1.49 0-2.781 0.805-3.458 2.011-0.678-1.206-1.97-2.011-3.459-2.011h-15.265c-0.282 0-0.511 0.229-0.511 0.511v2.812h-1.872c-0.282 0-0.511 0.229-0.511 0.511v27.411c0 0.282 0.229 0.511 0.511 0.511 5.127 0 37.068 0 42.213 0 0.282 0 0.511-0.229 0.511-0.511v-27.411c0-0.282-0.229-0.511-0.511-0.511zM26.267 1.144h14.754c0 4.573 0 16.619 0 27.35h-15.843c-0.702 0-1.405 0.296-1.859 0.68v-25.089c0-1.63 1.305-2.942 2.948-2.942zM4.596 1.144h14.754c1.597 0 2.889 1.243 2.942 2.829 0.001 0.022 0.003 0.091 0.006 0.112v25.087c-0.453-0.382-1.148-0.678-1.852-0.678h-15.85c0-10.728 0-22.779 0-27.35zM2.213 4.467h1.362v24.538c0 0.282 0.229 0.511 0.511 0.511h16.361c0.778 0 1.531 0.511 1.771 1.341h-20.005v-26.39zM43.404 30.856h-20.004c0.242-0.834 0.987-1.341 1.778-1.341h16.354c0.282 0 0.511-0.229 0.511-0.511v-24.538h1.362v26.39z">
            </path>
        </symbol>
        <symbol id="icon-newspapper" viewBox="0 0 31 32">
            <path
                d="M30.151 4.961c0-0.001-0.001-0.001-0.001-0.002-0.007-0.016-0.015-0.031-0.024-0.045-0.001-0.001-0.002-0.002-0.002-0.003-0.010-0.015-0.021-0.029-0.034-0.042l-4.806-4.806c-0.013-0.013-0.026-0.023-0.041-0.033-0.003-0.002-0.006-0.004-0.009-0.006-0.012-0.007-0.024-0.014-0.036-0.019-0.004-0.002-0.007-0.003-0.011-0.005-0.031-0.013-0.065-0.019-0.099-0.020-0.002 0-0.004-0-0.005-0h-21.172c-0.157 0-0.284 0.127-0.284 0.284v29.311c0 0.019 0.002 0.037 0.006 0.056 0.002 0.008 0.005 0.015 0.007 0.023 0.003 0.010 0.006 0.020 0.009 0.030 0.004 0.009 0.009 0.017 0.014 0.026 0.004 0.007 0.008 0.016 0.013 0.023 0.010 0.014 0.021 0.028 0.033 0.040 0.001 0.001 0.001 0.002 0.003 0.003l2.165 2.164c0.111 0.111 0.29 0.111 0.402 0l1.965-1.963 1.964 1.963c0.055 0.056 0.128 0.083 0.201 0.083s0.145-0.027 0.201-0.083l1.963-1.963 1.965 1.963c0.111 0.111 0.291 0.111 0.402 0l1.963-1.963 1.964 1.963c0.111 0.111 0.291 0.111 0.401 0l1.965-1.963 1.963 1.963c0.055 0.056 0.128 0.083 0.201 0.083s0.145-0.027 0.201-0.083l1.963-1.963 1.965 1.963c0.111 0.111 0.291 0.111 0.401 0l2.165-2.164c0.004-0.004 0.007-0.009 0.011-0.014 0.008-0.009 0.017-0.019 0.024-0.029s0.011-0.020 0.016-0.030c0.003-0.007 0.007-0.012 0.009-0.019 0.006-0.013 0.009-0.026 0.012-0.039 0.001-0.004 0.004-0.009 0.005-0.013 0.004-0.019 0.006-0.038 0.006-0.058v-24.503c-0.001-0.037-0.008-0.074-0.023-0.109zM25.367 0.949l3.836 3.835h-3.836v-3.835zM29.605 29.456l-1.88 1.88-1.965-1.963c-0.111-0.111-0.29-0.111-0.401 0l-1.963 1.963-1.963-1.963c-0.111-0.111-0.291-0.111-0.402 0l-1.965 1.963-1.963-1.962c0-0-0-0.001-0-0.001-0.055-0.055-0.128-0.083-0.201-0.083s-0.145 0.028-0.201 0.083c-0 0-0 0-0 0l-1.963 1.963-1.965-1.963c-0.111-0.111-0.29-0.111-0.402 0l-1.963 1.963-1.964-1.963c-0.111-0.111-0.29-0.111-0.402 0l-1.965 1.963-1.88-1.88v-28.909h20.603v4.522c0 0.157 0.127 0.284 0.284 0.284h4.521l0 24.103z">
            </path>
            <path
                d="M6.314 3.234h9.303c0.157 0 0.284-0.127 0.284-0.284s-0.127-0.284-0.284-0.284h-9.303c-0.157 0-0.284 0.127-0.284 0.284s0.127 0.284 0.284 0.284z">
            </path>
            <path
                d="M6.314 4.991h14.919c0.157 0 0.284-0.127 0.284-0.284s-0.127-0.284-0.284-0.284h-14.919c-0.157 0-0.284 0.127-0.284 0.284s0.127 0.284 0.284 0.284z">
            </path>
            <path
                d="M6.030 6.568v9.199c0 0.157 0.127 0.284 0.284 0.284h21.172c0.157 0 0.284-0.127 0.284-0.284v-9.199c0-0.157-0.127-0.284-0.284-0.284h-21.172c-0.157 0-0.284 0.127-0.284 0.284zM12.309 6.852h14.893v2.445h-14.893v-2.445zM12.309 9.865h14.893v2.444h-14.893v-2.444zM12.309 12.877h14.893v2.605h-14.893v-2.605zM6.598 6.852h5.142v2.445h-5.142v-2.445zM6.598 9.865h5.142v2.444h-5.142v-2.444zM6.598 12.877h5.142v2.605h-5.142v-2.605z">
            </path>
            <path
                d="M27.486 17.329h-21.172c-0.157 0-0.284 0.127-0.284 0.284v9.198c0 0.157 0.127 0.284 0.284 0.284s0.284-0.127 0.284-0.284v-2.889h5.142v2.889c0 0.157 0.127 0.284 0.284 0.284s0.284-0.127 0.284-0.284v-2.889h14.893v2.889c0 0.157 0.127 0.284 0.284 0.284s0.284-0.127 0.284-0.284v-9.198c0.001-0.157-0.126-0.284-0.283-0.284zM11.741 23.354h-5.142v-2.443h5.142v2.443zM11.741 20.342h-5.142v-2.444h5.142v2.444zM27.202 23.354h-14.893v-2.443h14.893v2.443zM27.202 20.342h-14.893v-2.444h14.893v2.444z">
            </path>
            <path
                d="M2.281-0.021c-0.157 0-0.284 0.127-0.284 0.284v29.311c0 0.157 0.127 0.284 0.284 0.284s0.284-0.127 0.284-0.284v-29.311c0-0.157-0.127-0.284-0.284-0.284z">
            </path>
            <path
                d="M0.718-0.021c-0.157 0-0.284 0.127-0.284 0.284v29.311c0 0.157 0.127 0.284 0.284 0.284s0.284-0.127 0.284-0.284v-29.311c0-0.157-0.127-0.284-0.284-0.284z">
            </path>
        </symbol>
        <symbol id="icon-ticked" viewBox="0 0 40 32">
            <path fill="#ff6b09" style="fill: var(--color1, #ff6b09)"
                d="M34.457 1.514c-1.484 0.664-2.907 1.475-4.265 2.379-2.731 1.797-5.228 3.936-7.57 6.218-2.341 2.287-4.52 4.735-6.581 7.28-0.515 0.636-2.823 3.47-2.823 3.47l-9.596-14.38-3.623 10.042 12.977 15.477c1.26-2.551 2.473-5.070 3.662-7.258 0.296-0.556 0.605-1.080 0.901-1.612 0 0 1.523-2.677 1.924-3.352 1.601-2.697 3.332-5.325 5.239-7.821 1.908-2.491 3.983-4.87 6.335-6.961 1.17-1.052 2.416-2.025 3.751-2.872 1.332-0.848 2.747-1.591 4.261-2.125-1.575 0.31-3.111 0.848-4.592 1.514z">
            </path>
        </symbol>
        <symbol id="icon-flame" viewBox="0 0 23 32">
            <path fill="#ff6b09" style="fill: var(--color1, #ff6b09)"
                d="M21.909 16.593c-0.284-0.635-0.675-1.261-1.247-1.983-1.442-1.813-1.882-5.857-1.887-5.896-0.020-0.194-0.156-0.354-0.337-0.412-0.186-0.058-0.386-0.005-0.518 0.141-1.721 1.925-0.997 4.897-0.606 6.085 0.108 0.325 0.225 0.708 0.308 1.096 0.636 3.137-0.592 4.558-0.88 4.844-0.279 0.078-0.469 0.039-0.645-0.15-0.606-0.664-0.807-2.841-0.523-5.678 0.059-0.577 0.044-1.096-0.039-1.581-0.598-3.486-2.791-5.722-3.349-6.507-1.535-2.269-1.692-6.046-1.696-6.080-0.005-0.179-0.108-0.339-0.269-0.417-0.156-0.078-0.347-0.068-0.494 0.034-2.562 1.741-2.342 5.935-1.985 8.276 0.083 0.543 0.244 1.096 0.523 1.794 0.992 2.497-0.196 5.721-0.205 5.75s-0.020 0.053-0.024 0.082c-0.152 0.795-0.406 1.27-0.689 1.27-0.029 0-0.059-0.005-0.093-0.015-0.347-0.073-0.528-0.441-0.533-0.761-0.020-4.136-4.17-5.527-4.214-5.542-0.186-0.058-0.391-0.005-0.518 0.145-0.132 0.15-0.156 0.359-0.068 0.533 0.049 0.102 0.205 0.548 0.098 2.124-0.093 1.416-0.352 2.817-0.768 4.16-0.988 3.219-0.831 6.269-0.821 6.415 0.759 8.257 12.635 9.704 19.683 5.052 0.772-0.509 1.403-1.091 1.868-1.731 2.601-3.588 1.071-8.461-0.068-11.050zM3.845 24.481c0.015 0.267-0.191 0.494-0.46 0.509h-0.029c-0.259 0-0.474-0.199-0.489-0.456-0.044-0.708-0.034-1.45 0.020-2.255 0.020-0.267 0.254-0.465 0.523-0.451 0.269 0.019 0.474 0.252 0.455 0.519-0.054 0.766-0.064 1.464-0.020 2.133zM4.084 20.186c-0.029 0.247-0.24 0.427-0.484 0.427-0.020 0-0.039 0-0.064-0.005-0.264-0.034-0.455-0.272-0.425-0.538l0.235-1.871c0.034-0.262 0.274-0.451 0.548-0.422 0.269 0.034 0.46 0.276 0.425 0.543l-0.235 1.867z">
            </path>
        </symbol>
        <symbol id="icon-vk" viewBox="0 0 53 32">
            <path fill="#436eab" style="fill: var(--color4, #436eab)"
                d="M45.901 20.1c1.769 1.727 3.636 3.352 5.223 5.254 0.701 0.845 1.364 1.717 1.872 2.698 0.719 1.394 0.068 2.928-1.182 3.011l-7.77-0.004c-2.004 0.166-3.603-0.641-4.947-2.011-1.076-1.096-2.072-2.262-3.106-3.395-0.424-0.463-0.868-0.898-1.398-1.243-1.061-0.688-1.981-0.478-2.587 0.629-0.617 1.125-0.758 2.371-0.818 3.625-0.083 1.83-0.636 2.311-2.474 2.395-3.928 0.185-7.655-0.409-11.118-2.39-3.053-1.747-5.42-4.213-7.481-7.004-4.012-5.436-7.084-11.409-9.845-17.549-0.622-1.383-0.167-2.126 1.359-2.152 2.535-0.049 5.069-0.046 7.607-0.004 1.030 0.015 1.712 0.606 2.11 1.579 1.371 3.372 3.049 6.58 5.156 9.554 0.561 0.792 1.133 1.583 1.947 2.141 0.901 0.617 1.587 0.412 2.011-0.591 0.269-0.636 0.387-1.322 0.447-2.004 0.201-2.345 0.227-4.686-0.125-7.023-0.216-1.458-1.038-2.403-2.493-2.679-0.743-0.141-0.632-0.417-0.273-0.841 0.625-0.731 1.212-1.186 2.383-1.186h8.781c1.382 0.273 1.689 0.894 1.879 2.285l0.007 9.754c-0.015 0.538 0.269 2.136 1.239 2.493 0.776 0.254 1.288-0.367 1.754-0.86 2.102-2.231 3.603-4.868 4.943-7.599 0.595-1.201 1.106-2.448 1.602-3.694 0.367-0.924 0.944-1.379 1.985-1.359l8.451 0.008c0.251 0 0.504 0.004 0.747 0.045 1.424 0.243 1.814 0.855 1.375 2.246-0.693 2.182-2.041 4-3.36 5.827-1.409 1.95-2.917 3.834-4.314 5.795-1.284 1.792-1.182 2.695 0.413 4.25z">
            </path>
        </symbol>
        <symbol id="icon-phone" viewBox="0 0 33 32">
            <path fill="#ff6b09" style="fill: var(--color1, #ff6b09)"
                d="M4.817 0.003c-0.533 0.025-1.056 0.252-1.44 0.674l-2.684 2.95c0.004-0.009-0.010-0.007-0.087 0.1-0.041 0.055-0.072 0.117-0.093 0.182-1.092 3.48-0.36 7.308 1.424 10.949s4.63 7.125 7.897 9.984c3.267 2.859 6.953 5.096 10.468 6.205s6.922 1.095 9.448-0.737c0.027-0.020 0.053-0.043 0.077-0.067 0.066-0.066 0.068-0.075 0.058-0.065l0.010-0.013 2.671-2.938c0.768-0.844 0.706-2.17-0.138-2.938l-6.337-5.763c-0.844-0.768-2.17-0.706-2.938 0.137l-2.867 3.153c-2.327-0.674-4.317-1.816-6.231-3.557s-3.24-3.615-4.131-5.869l2.866-3.153c0.768-0.844 0.706-2.17-0.137-2.938l-6.337-5.763c-0.422-0.384-0.965-0.561-1.498-0.535l-0.001 0zM4.878 1.296c0.196-0.009 0.396 0.059 0.559 0.208l6.337 5.763c0.326 0.297 0.349 0.771 0.052 1.097l-3.169 3.482c-0.080 0.088-0.134 0.196-0.156 0.313s-0.013 0.237 0.027 0.348c0.962 2.624 2.513 4.777 4.648 6.719s4.423 3.283 7.126 3.992c0.115 0.030 0.236 0.028 0.35-0.006s0.217-0.098 0.297-0.186l3.169-3.483c0.297-0.326 0.77-0.348 1.096-0.051l6.338 5.763c0.326 0.297 0.348 0.77 0.051 1.096l-2.649 2.912c-2.072 1.488-4.992 1.571-8.262 0.539-3.282-1.036-6.846-3.182-9.999-5.942s-5.898-6.131-7.585-9.573c-1.67-3.407-2.275-6.852-1.357-9.888l2.588-2.844c0.148-0.163 0.342-0.251 0.538-0.26l0 0z">
            </path>
        </symbol id="fire" viewBox="0 0 15 20">
        <symbol>
            <g clip-path="url(#clip0_1_2909)">
                <path
                    d="M13.6931 10.3706C13.5159 9.97365 13.2715 9.58274 12.914 9.13123C12.0126 7.9979 11.7376 5.47062 11.7345 5.44638C11.7223 5.32517 11.6367 5.22517 11.5237 5.18881C11.4076 5.15244 11.2823 5.18577 11.1998 5.27668C10.1242 6.47971 10.5765 8.33729 10.8209 9.07971C10.8881 9.28274 10.9615 9.52214 11.0134 9.76456C11.4106 11.7252 10.6437 12.613 10.4634 12.7918C10.2892 12.8403 10.17 12.8161 10.06 12.6979C9.68116 12.2827 9.55588 10.9221 9.7331 9.14941C9.7698 8.78881 9.7606 8.46456 9.70866 8.16153C9.3349 5.98265 7.96449 4.58502 7.6156 4.09487C6.65616 2.67668 6.55838 0.316077 6.55533 0.294865C6.55227 0.182744 6.48811 0.0827441 6.38727 0.0342593C6.28949 -0.0142256 6.17033 -0.00816496 6.07866 0.0554714C4.47755 1.14335 4.61505 3.76456 4.83811 5.2282C4.89005 5.56759 4.99088 5.91305 5.16505 6.34941C5.78533 7.91002 5.04283 9.92517 5.03672 9.94335C5.03061 9.96153 5.02449 9.97668 5.02144 9.99487C4.92672 10.4918 4.76783 10.7888 4.59061 10.7888C4.57227 10.7888 4.55394 10.7858 4.53255 10.7797C4.31561 10.7343 4.20255 10.504 4.19949 10.304C4.18727 7.71911 1.59311 6.84941 1.56561 6.84032C1.44949 6.80396 1.32116 6.83729 1.24172 6.93123C1.15922 7.02517 1.14394 7.15547 1.19894 7.26456C1.22949 7.3282 1.32727 7.60699 1.26005 8.59184C1.20199 9.47668 1.04005 10.3524 0.780328 11.1918C0.163106 13.204 0.260884 15.11 0.266995 15.2009C0.741614 20.3617 8.16374 21.266 12.5687 18.3585C13.0514 18.0403 13.4456 17.6767 13.7359 17.2767C15.3615 15.0343 14.4051 11.9888 13.6931 10.3706ZM2.40286 15.3009C2.41203 15.4676 2.28369 15.61 2.11564 15.6191H2.0973C1.93536 15.6191 1.80091 15.4949 1.79175 15.3343C1.76425 14.8918 1.77036 14.4282 1.80397 13.9252C1.81619 13.7585 1.96286 13.6343 2.13091 13.6433C2.29897 13.6554 2.4273 13.8009 2.41508 13.9676C2.38144 14.4464 2.37536 14.8827 2.40286 15.3009ZM2.55255 12.6161C2.53422 12.7706 2.40283 12.8827 2.25005 12.8827C2.23783 12.8827 2.22561 12.8827 2.21033 12.8797C2.04533 12.8585 1.92616 12.71 1.94449 12.5434L2.09116 11.3737C2.11255 11.21 2.26227 11.0918 2.43338 11.11C2.60144 11.1312 2.72061 11.2827 2.69922 11.4494L2.55255 12.6161Z"
                    fill="#FF6B09" />
                <path
                    d="M11.626 4.1459C11.4594 4.12029 11.3451 3.96584 11.3708 3.80057C11.3899 3.67745 11.5003 3.04714 11.7999 2.7302C11.9152 2.60799 12.1083 2.60163 12.2318 2.71644C12.3549 2.83081 12.3612 3.0226 12.2457 3.14481C12.1189 3.27902 12.0108 3.66311 11.9747 3.89293C11.949 4.05645 11.7952 4.1712 11.626 4.1459Z"
                    fill="#FF6B09" />
                <path
                    d="M0.486534 5.65529C0.428051 5.42992 0.282729 5.05826 0.143243 4.93692C0.0162845 4.82653 0.00360387 4.63507 0.114887 4.50932C0.225896 4.38326 0.418793 4.37038 0.546057 4.4812C0.875323 4.7675 1.04735 5.38407 1.07855 5.50465C1.12032 5.66668 1.02187 5.8315 0.85864 5.87323C0.691807 5.91483 0.528121 5.81462 0.486534 5.65529Z"
                    fill="#FF6B09" />
            </g>
            <defs>
                <clipPath id="clip0_1_2909">
                    <rect width="14.6667" height="20" fill="white" />
                </clipPath>
            </defs>
        </symbol>
    </defs>
</svg>